<?xml version="1.0" standalone="no"?><!DOCTYPE svg PUBLIC "-//W3C//DTD SVG 1.1//EN" "http://www.w3.org/Graphics/SVG/1.1/DTD/svg11.dtd"><svg t="1764766249854" class="icon" viewBox="0 0 1370 1024" version="1.1" xmlns="http://www.w3.org/2000/svg" p-id="2510" xmlns:xlink="http://www.w3.org/1999/xlink" width="267.578125" height="200"><path d="M857.064052 100.693626s-7.128884-71.507473-72.388645-77.510046c-65.253136-5.995948-262.519815-10.620447-399.283737 184.396923-136.76061 194.891488-231.523084 328.279791-324.278076 518.049878-25.749448 52.754401-19.750188 206.770752 115.132134 254.026108 72.259451 25.375116 522.174163 23.251689 691.942298 23.251688 169.764823 0 238.900419-63.384786 226.514314-139.89109-12.376166-76.506305-205.886267-292.529367-233.139671-348.533506-27.260029-56.000826-60.63195-110.630203-72.756352-185.261532-21.502595-133.010658 34.375662-116.88454 68.257735-228.395916v-0.132507z" fill="#F0A1E2" p-id="2511"></path><path d="M835.438889 99.073727c-2.252621-12.498735-12.498735-51.257071-52.631833-55.00371-31.129238-2.875405-93.639477-5.376477-164.888561 16.12943-70.758808 21.3734-150.021261 66.627898-215.148515 159.386202l-12.879693 18.375427C260.626268 422.09961 169.37192 552.370682 80.234373 734.760122c-1.122998 2.368565-2.126739 4.624499-2.875404 6.996377-8.626214 24.629763-10.752954 65.382331 1.378074 106.264093 11.875952 40.374923 37.754594 80.259569 85.132519 103.378751a192.294348 192.294348 0 0 0 19.627618 8.251882c64.133451 22.503023 458.2991 22.25126 647.681604 22.12869 69.377421 0-74.505447-0.119256 37.386887-0.119256 30.37726 0 57.004568-2.000858 80.256257-5.754122 45.254498-7.380647 77.877753-21.128262 98.760877-39.006787 18.749759-16.000236 27.627737-35.621229 27.627736-56.87206 0-4.753693-0.374333-9.381505-1.12631-13.750928-6.999689-42.88262-85.00995-144.39302-148.391423-226.524252-38.619203-50.124135-72.001062-93.503657-83.002467-116.12925a2154.098857 2154.098857 0 0 0-14.999807-29.880357c-24.122923-47.500494-49.130331-96.756707-59.624896-161.264491-14.625475-91.00921 3.875834-118.885398 29.125067-156.759248 12.495422-18.753072 26.749877-40.249041 38.374065-76.509618l-0.125881-0.135819z m-48.885194-97.005158c82.631447 7.625785 91.383543 96.133923 91.383543 96.379061l0.500214 4.127597-1.252192 4.250167c-13.744302 45.128616-30.499829 70.37785-45.006047 92.13552-19.995326 30.128809-34.74337 52.128305-22.618967 126.885516 9.371567 57.879115 32.881644 104.134041 55.626493 148.885012 5.124713 10.256052 10.381934 20.253715 15.251571 30.499829 9.123116 18.753072 41.123588 60.386812 78.377968 108.639284 66.256878 86.007066 147.891209 192.141965 156.639992 245.777538 1.126311 7.118946 1.745781 13.873497 1.745781 20.376284 0 33.626997-13.744302 64.381902-42.498349 89.008353-26.508051 22.744849-66.137622 39.881334-119.634063 48.500922-25.881955 4.256792-54.758572 6.5061-86.888238 6.5061-134.388732 0 5.005457-0.122569-37.376949-0.122569-191.648376 0.122569-590.809544 0.496902-661.568352-24.384625a258.518099 258.518099 0 0 1-24.248805-10.000975c-59.754091-29.121755-92.25809-79.12332-107.132015-129.505845-14.625475-49.753115-11.627501-100.63254-0.626096-132.142736 1.500643-4.376048 3.123856-8.367825 4.750381-11.6275 90.505683-185.13565 182.767085-316.648977 313.157414-502.546544l12.869755-18.375426c71.633355-102.136496 159.270258-152.01218 237.651539-175.641515 77.877753-23.50014 146.639016-20.753929 180.766228-17.626761l0.129194 0.003313z" fill="#E678D2" p-id="2512"></path><path d="M687.799444 127.950343c-56.136646-19.753501-133.769261 18.753072-228.028209 170.265038-94.258947 151.389397-167.018613 224.268319-238.897106 368.783908-45.502949 91.509424-32.755763 166.018184 60.257618 202.891605 49.882309 19.753501 353.154692 12.502048 496.285582 12.62793 143.024884 0 157.146832-37.751282 136.025195-112.01159-26.130406-91.757875-221.773872-297.776649-237.399776-407.035404-15.877667-110.762711 67.88009-215.645417 11.756696-235.398918v-0.122569z" fill="#F0A1E2" p-id="2513"></path><path d="M680.925636 147.952294c-23.510078-8.251882-52.761027-2.752836-87.885354 23.50014C558.780563 197.079313 520.283929 241.2075 477.775641 309.465236c-37.754594 60.754519-72.259451 109.010304-104.634255 154.387371-47.75557 66.882974-90.883328 127.263161-133.265734 212.521561a299.18785 299.18785 0 0 0-10.000976 22.499711c-13.131457 33.130095-16.752214 62.626183-9.629956 87.007495 6.87712 23.377571 24.374687 43.134384 54.006594 57.88574a190.889772 190.889772 0 0 0 14.751356 6.502787c36.628284 14.499593 239.649084 12.879693 390.793343 11.753382 36.502402-0.251764 70.003517-0.500214 97.624628-0.500214 65.388956 0 100.016382-7.377335 114.767739-22.002809 11.75007-11.753382 9.500761-33.375234 1.003741-63.133022-10.627072-37.251067-54.255045-98.62837-100.758422-164.136583-61.503185-86.510593-127.763375-179.769112-137.14488-245.651657-7.996805-56.130021 6.880433-108.881109 19.130717-151.760417 10.249427-36.0055 17.74933-62.629495 6.622044-66.63121l-0.115944-0.255077zM567.787735 137.573673c47.752257-35.627855 90.628252-42.256524 127.011398-29.376831 48.759311 17.123234 36.631596 60.005854 20.12452 117.884969-11.127286 39.129356-24.752332 87.255946-18.004406 134.507989 7.996805 55.88157 71.13314 144.638158 129.764233 227.150348 48.755999 68.635381 94.510711 133.133227 107.132015 177.019589 12.62793 44.376638 13.873497 78.884808-11.872639 104.634256-22.874043 22.751474-66.75378 34.259719-144.522215 34.259718-27.491917 0-60.999658 0.248451-97.505372 0.493589-154.761703 1.24888-362.652141 2.872092-406.538502-14.502905a205.723946 205.723946 0 0 1-17.875212-7.993493c-41.007644-20.376284-65.634094-49.00445-75.880208-83.76107-10.004288-33.878761-5.750809-72.630471 10.752953-114.383468a363.93746 363.93746 0 0 1 11.501619-25.630191c43.886362-88.385569 87.885354-150.017948 136.767235-218.39494C370.391863 394.978713 404.396505 347.471594 441.773454 287.217289c45.502949-73.004804 87.633591-121.008824 125.885087-149.511109l0.129194-0.132507z" fill="#E678D2" p-id="2514"></path><path d="M526.031426 407.725899c23.997041 0 43.376209 50.001566 43.376209 111.633945 0 14.887176-1.122998 29.002498-3.11723 41.882191 10.249427-8.251882 21.876927-16.252 34.749995-23.751903 53.377185-30.877474 106.376725-39.006787 118.388496-18.252858 12.008459 20.753929-21.618538 62.636121-75.012287 93.387713-12.873068 7.377335-25.620254 13.502477-37.880476 18.249545a266.899175 266.899175 0 0 1 37.880476 18.252857c53.380498 30.884099 87.010807 72.637096 75.012287 93.384401-12.011771 20.753929-64.99806 12.624617-118.388496-18.259483a267.730658 267.730658 0 0 1-34.749995-23.745278c1.997545 12.995637 3.11723 27.12421 3.11723 41.878879 0 61.632379-19.498424 111.637258-43.376209 111.637257-24.003667 0-43.379522-50.004878-43.379522-111.637257 0-14.873925 1.122998-29.002498 3.123855-41.878879-10.252739 8.251882-21.876927 16.252-34.749995 23.745278-53.380498 30.880787-106.386663 39.010099-118.388495 18.259483-11.998521-20.750617 21.628476-62.629495 75.008974-93.384401 12.873068-7.374022 25.626879-13.502477 37.880475-18.252857a267.194004 267.194004 0 0 1-37.880475-18.249545c-53.380498-30.877474-87.007495-72.633784-75.008974-93.387713 12.001833-20.753929 65.007998-12.624617 118.388495 18.252858a268.313689 268.313689 0 0 1 34.749995 23.751903 276.674889 276.674889 0 0 1-3.123855-41.882191c0.003313-61.632379 19.50505-111.633945 43.379522-111.633945z" fill="#E678D2" p-id="2515"></path><path d="M382.512953 459.983398c18.378739-15.37414 65.382331 10.375308 105.015213 57.627351 9.494136 11.37905 17.746017 22.883981 24.500569 34.127212 2.501072-12.87638 6.251024-26.501426 11.375737-40.50743 21.128262-58.004996 56.507666-98.25735 79.007377-90.005468 22.506336 8.251882 23.758529 61.877517 2.626953 119.756632-5.124713 14.002691-10.998092 26.879071-17.374997 38.377377a262.725201 262.725201 0 0 1 40.752568-10.375308c60.754519-10.752954 113.389664-0.251764 117.513949 23.380883 4.127597 23.632647-41.623802 51.376327-102.381635 62.129281a266.461902 266.461902 0 0 1-41.882191 4.13091 268.764213 268.764213 0 0 1 29.380143 30.122183c39.619632 47.258668 56.875373 98.015525 38.50326 113.389665-18.382052 15.370827-65.385644-10.381934-105.008588-57.633977-9.500761-11.369112-17.752643-22.877356-24.503882-34.120586-2.501072 12.869755-6.247711 26.498113-11.375737 40.504117-21.124949 58.004996-56.504353 98.25735-79.007376 90.005469-22.499711-8.248569-23.755216-61.88083-2.626954-119.75332 5.124713-14.009316 11.004717-26.885697 17.374997-38.384003a262.05604 262.05604 0 0 1-40.752568 10.378621c-60.754519 10.749641-113.386352 0.251764-117.513949-23.37757-4.13091-23.626021 41.623802-51.373015 102.381635-62.132594a267.247006 267.247006 0 0 1 41.878879-4.124284c-9.875094-8.629527-19.87607-18.749759-29.380144-30.128809-39.619632-47.261981-56.878686-98.015525-38.503259-113.386352z" fill="#F0A1E2" p-id="2516"></path></svg>